<mxfile host="app.diagrams.net" modified="2021-11-16T16:23:59.100Z" agent="5.0 (Windows NT 10.0; Win64; x64) AppleWebKit/537.36 (KHTML, like Gecko) Chrome/96.0.4664.45 Safari/537.36" etag="KX2QSOd_YJ59SeL8_zSm" version="15.7.4" type="github">
  <diagram id="AFQVhF0BD3_BTjm-yYgM" name="Page-1">
    <mxGraphModel dx="868" dy="482" grid="1" gridSize="10" guides="1" tooltips="1" connect="1" arrows="1" fold="1" page="1" pageScale="1" pageWidth="827" pageHeight="1169" math="0" shadow="0">
      <root>
        <mxCell id="0" />
        <mxCell id="1" parent="0" />
        <mxCell id="vJTMH6UanLYXI82q7wmM-1" style="edgeStyle=orthogonalEdgeStyle;rounded=0;orthogonalLoop=1;jettySize=auto;html=1;endArrow=none;endFill=0;" edge="1" parent="1" source="vJTMH6UanLYXI82q7wmM-2">
          <mxGeometry relative="1" as="geometry">
            <mxPoint x="210" y="380" as="targetPoint" />
          </mxGeometry>
        </mxCell>
        <mxCell id="vJTMH6UanLYXI82q7wmM-2" value="Joueur&amp;nbsp;" style="shape=umlActor;verticalLabelPosition=bottom;verticalAlign=top;html=1;outlineConnect=0;" vertex="1" parent="1">
          <mxGeometry x="110" y="350" width="30" height="60" as="geometry" />
        </mxCell>
        <mxCell id="vJTMH6UanLYXI82q7wmM-3" value="" style="edgeStyle=orthogonalEdgeStyle;rounded=0;orthogonalLoop=1;jettySize=auto;html=1;endArrow=none;endFill=0;" edge="1" parent="1" source="vJTMH6UanLYXI82q7wmM-6" target="vJTMH6UanLYXI82q7wmM-8">
          <mxGeometry relative="1" as="geometry" />
        </mxCell>
        <mxCell id="vJTMH6UanLYXI82q7wmM-4" value="Include&amp;nbsp;" style="edgeStyle=orthogonalEdgeStyle;rounded=0;orthogonalLoop=1;jettySize=auto;html=1;endArrow=none;endFill=0;dashed=1;" edge="1" parent="1" source="vJTMH6UanLYXI82q7wmM-6" target="vJTMH6UanLYXI82q7wmM-13">
          <mxGeometry relative="1" as="geometry">
            <Array as="points">
              <mxPoint x="230" y="445" />
              <mxPoint x="190" y="445" />
            </Array>
          </mxGeometry>
        </mxCell>
        <mxCell id="vJTMH6UanLYXI82q7wmM-5" value="Include&amp;nbsp;" style="edgeStyle=orthogonalEdgeStyle;rounded=0;orthogonalLoop=1;jettySize=auto;html=1;dashed=1;endArrow=none;endFill=0;" edge="1" parent="1" source="vJTMH6UanLYXI82q7wmM-6">
          <mxGeometry relative="1" as="geometry">
            <mxPoint x="320" y="480" as="targetPoint" />
            <Array as="points">
              <mxPoint x="300" y="443" />
              <mxPoint x="320" y="443" />
            </Array>
          </mxGeometry>
        </mxCell>
        <mxCell id="vJTMH6UanLYXI82q7wmM-6" value="Se connecte" style="ellipse;whiteSpace=wrap;html=1;" vertex="1" parent="1">
          <mxGeometry x="210" y="355" width="120" height="50" as="geometry" />
        </mxCell>
        <mxCell id="vJTMH6UanLYXI82q7wmM-7" value="" style="edgeStyle=orthogonalEdgeStyle;rounded=0;orthogonalLoop=1;jettySize=auto;html=1;endArrow=none;endFill=0;" edge="1" parent="1" source="vJTMH6UanLYXI82q7wmM-8" target="vJTMH6UanLYXI82q7wmM-12">
          <mxGeometry relative="1" as="geometry" />
        </mxCell>
        <mxCell id="vJTMH6UanLYXI82q7wmM-8" value="Choisir solo/multijoueur&amp;nbsp;" style="ellipse;whiteSpace=wrap;html=1;" vertex="1" parent="1">
          <mxGeometry x="410" y="355" width="120" height="50" as="geometry" />
        </mxCell>
        <mxCell id="vJTMH6UanLYXI82q7wmM-9" value="Mode de jeu : en équipe ou pas&amp;nbsp;" style="text;html=1;align=center;verticalAlign=middle;resizable=0;points=[];autosize=1;strokeColor=#d6b656;fillColor=#fff2cc;" vertex="1" parent="1">
          <mxGeometry x="575" y="330" width="190" height="20" as="geometry" />
        </mxCell>
        <mxCell id="vJTMH6UanLYXI82q7wmM-10" value="" style="edgeStyle=orthogonalEdgeStyle;rounded=0;orthogonalLoop=1;jettySize=auto;html=1;endArrow=none;endFill=0;startArrow=block;startFill=0;" edge="1" parent="1" source="vJTMH6UanLYXI82q7wmM-12" target="vJTMH6UanLYXI82q7wmM-16">
          <mxGeometry relative="1" as="geometry">
            <Array as="points">
              <mxPoint x="650" y="428" />
              <mxPoint x="600" y="428" />
            </Array>
          </mxGeometry>
        </mxCell>
        <mxCell id="vJTMH6UanLYXI82q7wmM-11" value="" style="edgeStyle=orthogonalEdgeStyle;rounded=0;orthogonalLoop=1;jettySize=auto;html=1;startArrow=none;startFill=0;endArrow=none;endFill=0;" edge="1" parent="1" source="vJTMH6UanLYXI82q7wmM-12" target="vJTMH6UanLYXI82q7wmM-26">
          <mxGeometry relative="1" as="geometry" />
        </mxCell>
        <mxCell id="vJTMH6UanLYXI82q7wmM-12" value="Choisir mode de jeu" style="ellipse;whiteSpace=wrap;html=1;" vertex="1" parent="1">
          <mxGeometry x="610" y="355" width="120" height="50" as="geometry" />
        </mxCell>
        <mxCell id="vJTMH6UanLYXI82q7wmM-13" value="Se déconnecter&amp;nbsp;" style="ellipse;whiteSpace=wrap;html=1;" vertex="1" parent="1">
          <mxGeometry x="130" y="485" width="120" height="50" as="geometry" />
        </mxCell>
        <mxCell id="vJTMH6UanLYXI82q7wmM-14" value="Accèder aux options" style="ellipse;whiteSpace=wrap;html=1;" vertex="1" parent="1">
          <mxGeometry x="270" y="485" width="120" height="50" as="geometry" />
        </mxCell>
        <mxCell id="vJTMH6UanLYXI82q7wmM-15" value="" style="edgeStyle=orthogonalEdgeStyle;rounded=0;orthogonalLoop=1;jettySize=auto;html=1;startArrow=none;startFill=0;endArrow=none;endFill=0;" edge="1" parent="1" source="vJTMH6UanLYXI82q7wmM-16" target="vJTMH6UanLYXI82q7wmM-17">
          <mxGeometry relative="1" as="geometry" />
        </mxCell>
        <mxCell id="vJTMH6UanLYXI82q7wmM-16" value="Multijoueur" style="ellipse;whiteSpace=wrap;html=1;" vertex="1" parent="1">
          <mxGeometry x="520" y="485" width="120" height="50" as="geometry" />
        </mxCell>
        <mxCell id="vJTMH6UanLYXI82q7wmM-17" value="Choisir la taille de l&#39;équipe&amp;nbsp;" style="ellipse;whiteSpace=wrap;html=1;" vertex="1" parent="1">
          <mxGeometry x="520" y="575" width="120" height="60" as="geometry" />
        </mxCell>
        <mxCell id="vJTMH6UanLYXI82q7wmM-18" style="edgeStyle=orthogonalEdgeStyle;rounded=0;orthogonalLoop=1;jettySize=auto;html=1;entryX=0.708;entryY=0.96;entryDx=0;entryDy=0;entryPerimeter=0;startArrow=none;startFill=0;endArrow=block;endFill=0;" edge="1" parent="1" source="vJTMH6UanLYXI82q7wmM-21" target="vJTMH6UanLYXI82q7wmM-12">
          <mxGeometry relative="1" as="geometry" />
        </mxCell>
        <mxCell id="vJTMH6UanLYXI82q7wmM-19" value="Extends" style="edgeStyle=orthogonalEdgeStyle;rounded=0;orthogonalLoop=1;jettySize=auto;html=1;startArrow=none;startFill=0;endArrow=none;endFill=0;dashed=1;" edge="1" parent="1" source="vJTMH6UanLYXI82q7wmM-21" target="vJTMH6UanLYXI82q7wmM-22">
          <mxGeometry relative="1" as="geometry">
            <Array as="points">
              <mxPoint x="720" y="585" />
              <mxPoint x="710" y="585" />
            </Array>
          </mxGeometry>
        </mxCell>
        <mxCell id="vJTMH6UanLYXI82q7wmM-20" value="Extends&amp;nbsp;" style="edgeStyle=orthogonalEdgeStyle;rounded=0;orthogonalLoop=1;jettySize=auto;html=1;dashed=1;startArrow=none;startFill=0;endArrow=none;endFill=0;" edge="1" parent="1" source="vJTMH6UanLYXI82q7wmM-21" target="vJTMH6UanLYXI82q7wmM-23">
          <mxGeometry x="0.3333" relative="1" as="geometry">
            <Array as="points">
              <mxPoint x="790" y="605" />
            </Array>
            <mxPoint as="offset" />
          </mxGeometry>
        </mxCell>
        <mxCell id="vJTMH6UanLYXI82q7wmM-21" value="Solo" style="ellipse;whiteSpace=wrap;html=1;" vertex="1" parent="1">
          <mxGeometry x="680" y="485" width="120" height="50" as="geometry" />
        </mxCell>
        <mxCell id="vJTMH6UanLYXI82q7wmM-22" value="Choisir son adversaire" style="ellipse;whiteSpace=wrap;html=1;" vertex="1" parent="1">
          <mxGeometry x="610" y="635" width="120" height="50" as="geometry" />
        </mxCell>
        <mxCell id="vJTMH6UanLYXI82q7wmM-23" value="Adversaire aléatoire&amp;nbsp;" style="ellipse;whiteSpace=wrap;html=1;" vertex="1" parent="1">
          <mxGeometry x="740" y="635" width="120" height="50" as="geometry" />
        </mxCell>
        <mxCell id="vJTMH6UanLYXI82q7wmM-24" value="Extends" style="edgeStyle=orthogonalEdgeStyle;rounded=0;orthogonalLoop=1;jettySize=auto;html=1;startArrow=none;startFill=0;endArrow=none;endFill=0;dashed=1;" edge="1" parent="1" source="vJTMH6UanLYXI82q7wmM-26" target="vJTMH6UanLYXI82q7wmM-27">
          <mxGeometry relative="1" as="geometry" />
        </mxCell>
        <mxCell id="vJTMH6UanLYXI82q7wmM-25" value="" style="edgeStyle=orthogonalEdgeStyle;rounded=0;orthogonalLoop=1;jettySize=auto;html=1;dashed=1;startArrow=none;startFill=0;endArrow=none;endFill=0;" edge="1" parent="1" source="vJTMH6UanLYXI82q7wmM-26" target="vJTMH6UanLYXI82q7wmM-29">
          <mxGeometry relative="1" as="geometry" />
        </mxCell>
        <mxCell id="vJTMH6UanLYXI82q7wmM-26" value="Choisir son animal" style="ellipse;whiteSpace=wrap;html=1;" vertex="1" parent="1">
          <mxGeometry x="810" y="355" width="120" height="50" as="geometry" />
        </mxCell>
        <mxCell id="vJTMH6UanLYXI82q7wmM-27" value="Choix aléatoire&amp;nbsp;" style="ellipse;whiteSpace=wrap;html=1;fillColor=#f5f5f5;strokeColor=#666666;fontColor=#333333;" vertex="1" parent="1">
          <mxGeometry x="810" y="230" width="120" height="50" as="geometry" />
        </mxCell>
        <mxCell id="vJTMH6UanLYXI82q7wmM-28" value="" style="edgeStyle=orthogonalEdgeStyle;rounded=0;orthogonalLoop=1;jettySize=auto;html=1;dashed=1;startArrow=none;startFill=0;endArrow=none;endFill=0;" edge="1" parent="1" source="vJTMH6UanLYXI82q7wmM-29" target="vJTMH6UanLYXI82q7wmM-31">
          <mxGeometry relative="1" as="geometry" />
        </mxCell>
        <mxCell id="vJTMH6UanLYXI82q7wmM-29" value="Choisir sa carte" style="ellipse;whiteSpace=wrap;html=1;" vertex="1" parent="1">
          <mxGeometry x="1010" y="355" width="120" height="50" as="geometry" />
        </mxCell>
        <mxCell id="vJTMH6UanLYXI82q7wmM-30" value="" style="edgeStyle=orthogonalEdgeStyle;rounded=0;orthogonalLoop=1;jettySize=auto;html=1;dashed=1;startArrow=none;startFill=0;endArrow=none;endFill=0;" edge="1" parent="1" source="vJTMH6UanLYXI82q7wmM-31" target="vJTMH6UanLYXI82q7wmM-32">
          <mxGeometry relative="1" as="geometry" />
        </mxCell>
        <mxCell id="vJTMH6UanLYXI82q7wmM-31" value="Valider ses choix" style="ellipse;whiteSpace=wrap;html=1;" vertex="1" parent="1">
          <mxGeometry x="1210" y="355" width="120" height="50" as="geometry" />
        </mxCell>
        <mxCell id="vJTMH6UanLYXI82q7wmM-32" value="Jouer&amp;nbsp;" style="ellipse;whiteSpace=wrap;html=1;" vertex="1" parent="1">
          <mxGeometry x="1410" y="355" width="120" height="50" as="geometry" />
        </mxCell>
      </root>
    </mxGraphModel>
  </diagram>
</mxfile>
